<mxfile host="app.diagrams.net" modified="2021-10-28T16:10:44.124Z" agent="5.0 (X11; Linux x86_64) AppleWebKit/537.36 (KHTML, like Gecko) Chrome/94.0.4606.71 Safari/537.36" etag="puJNueuXj0tXZqmXPZON" version="15.6.1" type="github" pages="2">
  <diagram id="hA7nYfaYkBIjUXooF4bN" name="Adj">
    <mxGraphModel dx="2182" dy="1942" grid="1" gridSize="10" guides="1" tooltips="1" connect="1" arrows="1" fold="1" page="1" pageScale="1" pageWidth="827" pageHeight="1169" math="0" shadow="0">
      <root>
        <mxCell id="0" />
        <mxCell id="1" parent="0" />
        <mxCell id="55Ju3cq9aCfKq7qBWieg-3" value="" style="rounded=0;orthogonalLoop=1;jettySize=auto;html=1;" parent="1" source="55Ju3cq9aCfKq7qBWieg-1" target="55Ju3cq9aCfKq7qBWieg-2" edge="1">
          <mxGeometry relative="1" as="geometry" />
        </mxCell>
        <mxCell id="55Ju3cq9aCfKq7qBWieg-5" style="rounded=0;orthogonalLoop=1;jettySize=auto;html=1;exitX=1;exitY=0;exitDx=0;exitDy=0;" parent="1" source="55Ju3cq9aCfKq7qBWieg-1" target="55Ju3cq9aCfKq7qBWieg-4" edge="1">
          <mxGeometry relative="1" as="geometry" />
        </mxCell>
        <mxCell id="55Ju3cq9aCfKq7qBWieg-7" style="edgeStyle=none;rounded=0;orthogonalLoop=1;jettySize=auto;html=1;exitX=0;exitY=0;exitDx=0;exitDy=0;" parent="1" source="55Ju3cq9aCfKq7qBWieg-1" target="55Ju3cq9aCfKq7qBWieg-6" edge="1">
          <mxGeometry relative="1" as="geometry" />
        </mxCell>
        <mxCell id="55Ju3cq9aCfKq7qBWieg-9" style="edgeStyle=none;rounded=0;orthogonalLoop=1;jettySize=auto;html=1;entryX=1;entryY=1;entryDx=0;entryDy=0;" parent="1" source="55Ju3cq9aCfKq7qBWieg-1" target="55Ju3cq9aCfKq7qBWieg-8" edge="1">
          <mxGeometry relative="1" as="geometry" />
        </mxCell>
        <mxCell id="55Ju3cq9aCfKq7qBWieg-11" style="edgeStyle=none;rounded=0;orthogonalLoop=1;jettySize=auto;html=1;entryX=0;entryY=0.5;entryDx=0;entryDy=0;" parent="1" source="55Ju3cq9aCfKq7qBWieg-1" target="55Ju3cq9aCfKq7qBWieg-10" edge="1">
          <mxGeometry relative="1" as="geometry" />
        </mxCell>
        <mxCell id="55Ju3cq9aCfKq7qBWieg-13" value="" style="edgeStyle=none;rounded=0;orthogonalLoop=1;jettySize=auto;html=1;" parent="1" source="55Ju3cq9aCfKq7qBWieg-1" target="55Ju3cq9aCfKq7qBWieg-12" edge="1">
          <mxGeometry relative="1" as="geometry" />
        </mxCell>
        <mxCell id="VJlItySSwOdAPPNNXBNr-4" value="" style="edgeStyle=none;rounded=0;orthogonalLoop=1;jettySize=auto;html=1;" parent="1" source="55Ju3cq9aCfKq7qBWieg-1" target="VJlItySSwOdAPPNNXBNr-3" edge="1">
          <mxGeometry relative="1" as="geometry" />
        </mxCell>
        <mxCell id="55Ju3cq9aCfKq7qBWieg-1" value="Controversial" style="ellipse;whiteSpace=wrap;html=1;" parent="1" vertex="1">
          <mxGeometry x="330" y="280" width="120" height="80" as="geometry" />
        </mxCell>
        <mxCell id="VJlItySSwOdAPPNNXBNr-6" value="" style="edgeStyle=none;rounded=0;orthogonalLoop=1;jettySize=auto;html=1;" parent="1" source="55Ju3cq9aCfKq7qBWieg-2" target="VJlItySSwOdAPPNNXBNr-5" edge="1">
          <mxGeometry relative="1" as="geometry" />
        </mxCell>
        <mxCell id="55Ju3cq9aCfKq7qBWieg-2" value="Contentious" style="ellipse;whiteSpace=wrap;html=1;" parent="1" vertex="1">
          <mxGeometry x="340" width="120" height="80" as="geometry" />
        </mxCell>
        <mxCell id="55Ju3cq9aCfKq7qBWieg-4" value="Disputed" style="ellipse;whiteSpace=wrap;html=1;" parent="1" vertex="1">
          <mxGeometry x="500" y="30" width="120" height="80" as="geometry" />
        </mxCell>
        <mxCell id="55Ju3cq9aCfKq7qBWieg-6" value="Dubious" style="ellipse;whiteSpace=wrap;html=1;" parent="1" vertex="1">
          <mxGeometry x="170" y="30" width="120" height="80" as="geometry" />
        </mxCell>
        <mxCell id="55Ju3cq9aCfKq7qBWieg-8" value="Questionable" style="ellipse;whiteSpace=wrap;html=1;" parent="1" vertex="1">
          <mxGeometry x="20" y="120" width="120" height="80" as="geometry" />
        </mxCell>
        <mxCell id="55Ju3cq9aCfKq7qBWieg-10" value="Uncertain" style="ellipse;whiteSpace=wrap;html=1;" parent="1" vertex="1">
          <mxGeometry x="610" y="140" width="120" height="80" as="geometry" />
        </mxCell>
        <mxCell id="VJlItySSwOdAPPNNXBNr-2" value="" style="edgeStyle=none;rounded=0;orthogonalLoop=1;jettySize=auto;html=1;" parent="1" source="55Ju3cq9aCfKq7qBWieg-12" target="VJlItySSwOdAPPNNXBNr-1" edge="1">
          <mxGeometry relative="1" as="geometry" />
        </mxCell>
        <mxCell id="55Ju3cq9aCfKq7qBWieg-12" value="Controversy" style="ellipse;whiteSpace=wrap;html=1;" parent="1" vertex="1">
          <mxGeometry x="330" y="430" width="120" height="80" as="geometry" />
        </mxCell>
        <mxCell id="55Ju3cq9aCfKq7qBWieg-16" value="" style="edgeStyle=none;rounded=0;orthogonalLoop=1;jettySize=auto;html=1;" parent="1" source="55Ju3cq9aCfKq7qBWieg-14" target="55Ju3cq9aCfKq7qBWieg-15" edge="1">
          <mxGeometry relative="1" as="geometry" />
        </mxCell>
        <mxCell id="55Ju3cq9aCfKq7qBWieg-18" style="edgeStyle=none;rounded=0;orthogonalLoop=1;jettySize=auto;html=1;exitX=1;exitY=0;exitDx=0;exitDy=0;entryX=0;entryY=1;entryDx=0;entryDy=0;" parent="1" source="55Ju3cq9aCfKq7qBWieg-14" target="55Ju3cq9aCfKq7qBWieg-17" edge="1">
          <mxGeometry relative="1" as="geometry" />
        </mxCell>
        <mxCell id="55Ju3cq9aCfKq7qBWieg-20" style="edgeStyle=none;rounded=0;orthogonalLoop=1;jettySize=auto;html=1;entryX=0;entryY=0.5;entryDx=0;entryDy=0;" parent="1" source="55Ju3cq9aCfKq7qBWieg-14" target="55Ju3cq9aCfKq7qBWieg-19" edge="1">
          <mxGeometry relative="1" as="geometry" />
        </mxCell>
        <mxCell id="55Ju3cq9aCfKq7qBWieg-22" style="edgeStyle=none;rounded=0;orthogonalLoop=1;jettySize=auto;html=1;exitX=0;exitY=0;exitDx=0;exitDy=0;entryX=1;entryY=1;entryDx=0;entryDy=0;" parent="1" source="55Ju3cq9aCfKq7qBWieg-14" target="55Ju3cq9aCfKq7qBWieg-21" edge="1">
          <mxGeometry relative="1" as="geometry" />
        </mxCell>
        <mxCell id="55Ju3cq9aCfKq7qBWieg-24" style="edgeStyle=none;rounded=0;orthogonalLoop=1;jettySize=auto;html=1;exitX=0;exitY=0.5;exitDx=0;exitDy=0;" parent="1" source="55Ju3cq9aCfKq7qBWieg-14" target="55Ju3cq9aCfKq7qBWieg-23" edge="1">
          <mxGeometry relative="1" as="geometry" />
        </mxCell>
        <mxCell id="55Ju3cq9aCfKq7qBWieg-26" style="edgeStyle=none;rounded=0;orthogonalLoop=1;jettySize=auto;html=1;entryX=1;entryY=0.5;entryDx=0;entryDy=0;" parent="1" source="55Ju3cq9aCfKq7qBWieg-14" target="55Ju3cq9aCfKq7qBWieg-25" edge="1">
          <mxGeometry relative="1" as="geometry" />
        </mxCell>
        <mxCell id="55Ju3cq9aCfKq7qBWieg-28" style="edgeStyle=none;rounded=0;orthogonalLoop=1;jettySize=auto;html=1;" parent="1" source="55Ju3cq9aCfKq7qBWieg-14" target="55Ju3cq9aCfKq7qBWieg-27" edge="1">
          <mxGeometry relative="1" as="geometry" />
        </mxCell>
        <mxCell id="55Ju3cq9aCfKq7qBWieg-30" value="" style="edgeStyle=none;rounded=0;orthogonalLoop=1;jettySize=auto;html=1;" parent="1" source="55Ju3cq9aCfKq7qBWieg-14" target="55Ju3cq9aCfKq7qBWieg-29" edge="1">
          <mxGeometry relative="1" as="geometry" />
        </mxCell>
        <mxCell id="55Ju3cq9aCfKq7qBWieg-14" value="Absurd" style="ellipse;whiteSpace=wrap;html=1;" parent="1" vertex="1">
          <mxGeometry x="1020" y="280" width="120" height="80" as="geometry" />
        </mxCell>
        <mxCell id="55Ju3cq9aCfKq7qBWieg-15" value="Illogical" style="ellipse;whiteSpace=wrap;html=1;" parent="1" vertex="1">
          <mxGeometry x="1020" y="30" width="120" height="80" as="geometry" />
        </mxCell>
        <mxCell id="55Ju3cq9aCfKq7qBWieg-17" value="Unresonable" style="ellipse;whiteSpace=wrap;html=1;" parent="1" vertex="1">
          <mxGeometry x="1210" y="80" width="120" height="80" as="geometry" />
        </mxCell>
        <mxCell id="55Ju3cq9aCfKq7qBWieg-19" value="Crazy" style="ellipse;whiteSpace=wrap;html=1;" parent="1" vertex="1">
          <mxGeometry x="1291" y="190" width="120" height="80" as="geometry" />
        </mxCell>
        <mxCell id="55Ju3cq9aCfKq7qBWieg-21" value="Stupid" style="ellipse;whiteSpace=wrap;html=1;" parent="1" vertex="1">
          <mxGeometry x="850" y="70" width="120" height="80" as="geometry" />
        </mxCell>
        <mxCell id="55Ju3cq9aCfKq7qBWieg-23" value="Foolish" style="ellipse;whiteSpace=wrap;html=1;" parent="1" vertex="1">
          <mxGeometry x="800" y="170" width="120" height="80" as="geometry" />
        </mxCell>
        <mxCell id="55Ju3cq9aCfKq7qBWieg-25" value="Irational" style="ellipse;whiteSpace=wrap;html=1;" parent="1" vertex="1">
          <mxGeometry x="800" y="300" width="120" height="80" as="geometry" />
        </mxCell>
        <mxCell id="55Ju3cq9aCfKq7qBWieg-27" value="Wacky" style="ellipse;whiteSpace=wrap;html=1;" parent="1" vertex="1">
          <mxGeometry x="1291" y="290" width="120" height="80" as="geometry" />
        </mxCell>
        <mxCell id="55Ju3cq9aCfKq7qBWieg-29" value="Absurdity" style="ellipse;whiteSpace=wrap;html=1;" parent="1" vertex="1">
          <mxGeometry x="1020" y="400" width="120" height="80" as="geometry" />
        </mxCell>
        <mxCell id="VJlItySSwOdAPPNNXBNr-1" value="&lt;span style=&quot;color: rgb(29, 42, 87); font-size: 17px; font-style: italic; font-weight: 400; letter-spacing: normal; text-indent: 0px; text-transform: none; word-spacing: 0px; display: inline; float: none;&quot;&gt;The&lt;span&gt;&amp;nbsp;&lt;/span&gt;&lt;/span&gt;&lt;a class=&quot;query&quot; href=&quot;https://dictionary.cambridge.org/vi/dictionary/english/policy&quot; title=&quot;policy&quot; style=&quot;box-sizing: border-box; background-color: transparent; text-decoration: none; color: rgb(29, 42, 87); cursor: pointer; font-size: 17px; font-style: italic; font-weight: 400; letter-spacing: normal; text-indent: 0px; text-transform: none; word-spacing: 0px;&quot;&gt;policy&lt;/a&gt;&lt;span style=&quot;color: rgb(29, 42, 87); font-size: 17px; font-style: italic; font-weight: 400; letter-spacing: normal; text-indent: 0px; text-transform: none; word-spacing: 0px; display: inline; float: none;&quot;&gt;&lt;span&gt;&amp;nbsp;&lt;/span&gt;has&lt;span&gt;&amp;nbsp;&lt;/span&gt;&lt;/span&gt;&lt;a class=&quot;query&quot; href=&quot;https://dictionary.cambridge.org/vi/dictionary/english/cause&quot; title=&quot;caused&quot; style=&quot;box-sizing: border-box; background-color: transparent; text-decoration: none; color: rgb(29, 42, 87); cursor: pointer; font-size: 17px; font-style: italic; font-weight: 400; letter-spacing: normal; text-indent: 0px; text-transform: none; word-spacing: 0px;&quot;&gt;caused&lt;/a&gt;&lt;span style=&quot;color: rgb(29, 42, 87); font-size: 17px; font-style: italic; font-weight: 400; letter-spacing: normal; text-indent: 0px; text-transform: none; word-spacing: 0px; display: inline; float: none;&quot;&gt;&lt;span&gt;&amp;nbsp;&lt;/span&gt;&lt;/span&gt;&lt;span class=&quot;b db&quot; style=&quot;box-sizing: border-box; font-weight: 700; color: rgb(29, 42, 87); font-size: 17px; font-style: italic; letter-spacing: normal; text-indent: 0px; text-transform: none; word-spacing: 0px;&quot;&gt;&lt;a class=&quot;query&quot; href=&quot;https://dictionary.cambridge.org/vi/dictionary/english/fierce&quot; title=&quot;fierce&quot; style=&quot;box-sizing: border-box ; background-color: transparent ; text-decoration: none ; color: rgb(29 , 42 , 87) ; cursor: pointer&quot;&gt;fierce&lt;/a&gt;/&lt;a class=&quot;query&quot; href=&quot;https://dictionary.cambridge.org/vi/dictionary/english/heated&quot; title=&quot;heated&quot; style=&quot;box-sizing: border-box ; background-color: transparent ; text-decoration: none ; color: rgb(29 , 42 , 87) ; cursor: pointer&quot;&gt;heated&lt;/a&gt;&lt;/span&gt;&lt;span style=&quot;color: rgb(29, 42, 87); font-size: 17px; font-style: italic; font-weight: 400; letter-spacing: normal; text-indent: 0px; text-transform: none; word-spacing: 0px; display: inline; float: none;&quot;&gt;&lt;span&gt;&amp;nbsp;&lt;/span&gt;controversy&lt;span&gt;&amp;nbsp;&lt;/span&gt;&lt;/span&gt;&lt;a class=&quot;query&quot; href=&quot;https://dictionary.cambridge.org/vi/dictionary/english/ever&quot; title=&quot;ever&quot; style=&quot;box-sizing: border-box; background-color: transparent; text-decoration: none; color: rgb(29, 42, 87); cursor: pointer; font-size: 17px; font-style: italic; font-weight: 400; letter-spacing: normal; text-indent: 0px; text-transform: none; word-spacing: 0px;&quot;&gt;ever&lt;/a&gt;&lt;span style=&quot;color: rgb(29, 42, 87); font-size: 17px; font-style: italic; font-weight: 400; letter-spacing: normal; text-indent: 0px; text-transform: none; word-spacing: 0px; display: inline; float: none;&quot;&gt;&lt;span&gt;&amp;nbsp;&lt;/span&gt;since it was&lt;span&gt;&amp;nbsp;&lt;/span&gt;&lt;/span&gt;&lt;a class=&quot;query&quot; href=&quot;https://dictionary.cambridge.org/vi/dictionary/english/introduce&quot; title=&quot;introduced&quot; style=&quot;box-sizing: border-box; background-color: transparent; text-decoration: none; color: rgb(29, 42, 87); cursor: pointer; font-size: 17px; font-style: italic; font-weight: 400; letter-spacing: normal; text-indent: 0px; text-transform: none; word-spacing: 0px;&quot;&gt;introduced&lt;/a&gt;&lt;span style=&quot;color: rgb(29, 42, 87); font-size: 17px; font-style: italic; font-weight: 400; letter-spacing: normal; text-indent: 0px; text-transform: none; word-spacing: 0px; display: inline; float: none;&quot;&gt;.&lt;/span&gt;" style="whiteSpace=wrap;html=1;" parent="1" vertex="1">
          <mxGeometry x="150" y="610" width="480" height="60" as="geometry" />
        </mxCell>
        <mxCell id="VJlItySSwOdAPPNNXBNr-3" value="&lt;span style=&quot;color: rgb(29, 42, 87); font-size: 17px; font-style: italic; font-weight: 400; letter-spacing: normal; text-indent: 0px; text-transform: none; word-spacing: 0px; display: inline; float: none;&quot;&gt;The&lt;span&gt;&amp;nbsp;&lt;/span&gt;&lt;/span&gt;&lt;a class=&quot;query&quot; href=&quot;https://dictionary.cambridge.org/vi/dictionary/english/book&quot; title=&quot;book&quot; style=&quot;box-sizing: border-box; background-color: transparent; text-decoration: none; color: rgb(29, 42, 87); cursor: pointer; font-size: 17px; font-style: italic; font-weight: 400; letter-spacing: normal; text-indent: 0px; text-transform: none; word-spacing: 0px;&quot;&gt;book&lt;/a&gt;&lt;span style=&quot;color: rgb(29, 42, 87); font-size: 17px; font-style: italic; font-weight: 400; letter-spacing: normal; text-indent: 0px; text-transform: none; word-spacing: 0px; display: inline; float: none;&quot;&gt;&lt;span&gt;&amp;nbsp;&lt;/span&gt;was very controversial.&lt;/span&gt;" style="whiteSpace=wrap;html=1;" parent="1" vertex="1">
          <mxGeometry x="80" y="290" width="170" height="60" as="geometry" />
        </mxCell>
        <mxCell id="VJlItySSwOdAPPNNXBNr-5" value="&lt;span style=&quot;color: rgb(29, 42, 87); font-size: 17px; font-style: italic; font-weight: 400; letter-spacing: normal; text-indent: 0px; text-transform: none; word-spacing: 0px; display: inline; float: none;&quot;&gt;She has some very contentious&lt;span&gt;&amp;nbsp;&lt;/span&gt;&lt;/span&gt;&lt;span class=&quot;b db&quot; style=&quot;box-sizing: border-box; font-weight: 700; color: rgb(29, 42, 87); font-size: 17px; font-style: italic; letter-spacing: normal; text-indent: 0px; text-transform: none; word-spacing: 0px;&quot;&gt;&lt;a class=&quot;query&quot; href=&quot;https://dictionary.cambridge.org/vi/dictionary/english/view&quot; title=&quot;views&quot; style=&quot;box-sizing: border-box ; background-color: transparent ; text-decoration: none ; color: rgb(29 , 42 , 87) ; cursor: pointer&quot;&gt;views&lt;/a&gt;&lt;/span&gt;&lt;span style=&quot;color: rgb(29, 42, 87); font-size: 17px; font-style: italic; font-weight: 400; letter-spacing: normal; text-indent: 0px; text-transform: none; word-spacing: 0px; display: inline; float: none;&quot;&gt;&lt;span&gt;&amp;nbsp;&lt;/span&gt;on&lt;span&gt;&amp;nbsp;&lt;/span&gt;&lt;/span&gt;&lt;a class=&quot;query&quot; href=&quot;https://dictionary.cambridge.org/vi/dictionary/english/education&quot; title=&quot;education&quot; style=&quot;box-sizing: border-box; background-color: transparent; text-decoration: none; color: rgb(29, 42, 87); cursor: pointer; font-size: 17px; font-style: italic; font-weight: 400; letter-spacing: normal; text-indent: 0px; text-transform: none; word-spacing: 0px;&quot;&gt;education&lt;/a&gt;&lt;span style=&quot;color: rgb(29, 42, 87); font-size: 17px; font-style: italic; font-weight: 400; letter-spacing: normal; text-indent: 0px; text-transform: none; word-spacing: 0px; display: inline; float: none;&quot;&gt;.&lt;/span&gt;" style="whiteSpace=wrap;html=1;" parent="1" vertex="1">
          <mxGeometry x="265" y="-150" width="270" height="60" as="geometry" />
        </mxCell>
        <mxCell id="mvb9WVDTiWPov-UJVNht-3" value="" style="rounded=0;orthogonalLoop=1;jettySize=auto;html=1;" edge="1" parent="1" source="mvb9WVDTiWPov-UJVNht-1" target="mvb9WVDTiWPov-UJVNht-2">
          <mxGeometry relative="1" as="geometry" />
        </mxCell>
        <mxCell id="mvb9WVDTiWPov-UJVNht-7" style="edgeStyle=none;rounded=0;orthogonalLoop=1;jettySize=auto;html=1;exitX=0;exitY=0;exitDx=0;exitDy=0;entryX=1;entryY=1;entryDx=0;entryDy=0;" edge="1" parent="1" source="mvb9WVDTiWPov-UJVNht-1" target="mvb9WVDTiWPov-UJVNht-6">
          <mxGeometry relative="1" as="geometry" />
        </mxCell>
        <mxCell id="mvb9WVDTiWPov-UJVNht-11" style="edgeStyle=none;rounded=0;orthogonalLoop=1;jettySize=auto;html=1;exitX=0.5;exitY=0;exitDx=0;exitDy=0;" edge="1" parent="1" source="mvb9WVDTiWPov-UJVNht-1" target="mvb9WVDTiWPov-UJVNht-10">
          <mxGeometry relative="1" as="geometry" />
        </mxCell>
        <mxCell id="mvb9WVDTiWPov-UJVNht-15" style="edgeStyle=none;rounded=0;orthogonalLoop=1;jettySize=auto;html=1;exitX=0.717;exitY=0.063;exitDx=0;exitDy=0;exitPerimeter=0;" edge="1" parent="1" source="mvb9WVDTiWPov-UJVNht-1" target="mvb9WVDTiWPov-UJVNht-14">
          <mxGeometry relative="1" as="geometry" />
        </mxCell>
        <mxCell id="mvb9WVDTiWPov-UJVNht-1" value="Comprehensible" style="ellipse;whiteSpace=wrap;html=1;" vertex="1" parent="1">
          <mxGeometry x="340" y="1180" width="120" height="80" as="geometry" />
        </mxCell>
        <mxCell id="mvb9WVDTiWPov-UJVNht-2" value="&lt;span class=&quot;deg&quot; style=&quot;box-sizing: border-box; color: rgb(29, 42, 87); font-family: arial, helvetica, sans-serif; font-size: 16px; font-style: normal; font-weight: 400; letter-spacing: normal; text-indent: 0px; text-transform: none; word-spacing: 0px;&quot;&gt;What is compelling or&lt;span&gt;&amp;nbsp;&lt;/span&gt;&lt;em style=&quot;box-sizing: border-box&quot;&gt;comprehensible&lt;/em&gt;&lt;span&gt;&amp;nbsp;&lt;/span&gt;to one person may be uninteresting or unintelligible to another.&lt;/span&gt;&lt;span style=&quot;color: rgb(29, 42, 87); font-family: arial, helvetica, sans-serif; font-size: 16px; font-style: normal; font-weight: 400; letter-spacing: normal; text-indent: 0px; text-transform: none; word-spacing: 0px; display: inline; float: none;&quot;&gt;&lt;/span&gt;&lt;br class=&quot;Apple-interchange-newline&quot;&gt;" style="whiteSpace=wrap;html=1;" vertex="1" parent="1">
          <mxGeometry x="210" y="1350" width="380" height="60" as="geometry" />
        </mxCell>
        <mxCell id="mvb9WVDTiWPov-UJVNht-19" value="" style="edgeStyle=none;rounded=0;orthogonalLoop=1;jettySize=auto;html=1;" edge="1" parent="1" source="mvb9WVDTiWPov-UJVNht-4" target="mvb9WVDTiWPov-UJVNht-18">
          <mxGeometry relative="1" as="geometry" />
        </mxCell>
        <mxCell id="mvb9WVDTiWPov-UJVNht-21" value="" style="edgeStyle=none;rounded=0;orthogonalLoop=1;jettySize=auto;html=1;" edge="1" parent="1" source="mvb9WVDTiWPov-UJVNht-4" target="mvb9WVDTiWPov-UJVNht-20">
          <mxGeometry relative="1" as="geometry" />
        </mxCell>
        <mxCell id="mvb9WVDTiWPov-UJVNht-25" value="" style="edgeStyle=none;rounded=0;orthogonalLoop=1;jettySize=auto;html=1;" edge="1" parent="1" source="mvb9WVDTiWPov-UJVNht-4" target="mvb9WVDTiWPov-UJVNht-24">
          <mxGeometry relative="1" as="geometry" />
        </mxCell>
        <mxCell id="mvb9WVDTiWPov-UJVNht-31" value="" style="edgeStyle=none;rounded=0;orthogonalLoop=1;jettySize=auto;html=1;" edge="1" parent="1" source="mvb9WVDTiWPov-UJVNht-4" target="mvb9WVDTiWPov-UJVNht-30">
          <mxGeometry relative="1" as="geometry" />
        </mxCell>
        <mxCell id="mvb9WVDTiWPov-UJVNht-4" value="Compelling" style="ellipse;whiteSpace=wrap;html=1;" vertex="1" parent="1">
          <mxGeometry x="1230" y="1120" width="120" height="80" as="geometry" />
        </mxCell>
        <mxCell id="mvb9WVDTiWPov-UJVNht-9" value="" style="edgeStyle=none;rounded=0;orthogonalLoop=1;jettySize=auto;html=1;" edge="1" parent="1" source="mvb9WVDTiWPov-UJVNht-6" target="mvb9WVDTiWPov-UJVNht-8">
          <mxGeometry relative="1" as="geometry" />
        </mxCell>
        <mxCell id="mvb9WVDTiWPov-UJVNht-6" value="&lt;span style=&quot;color: rgb(0 , 0 , 0) ; font-family: &amp;#34;helvetica&amp;#34; ; font-size: 12px ; font-style: normal ; font-weight: 400 ; letter-spacing: normal ; text-align: center ; text-indent: 0px ; text-transform: none ; word-spacing: 0px ; background-color: rgb(248 , 249 , 250) ; display: inline ; float: none&quot;&gt;Coherent&lt;/span&gt;" style="ellipse;whiteSpace=wrap;html=1;" vertex="1" parent="1">
          <mxGeometry x="100" y="1030" width="120" height="80" as="geometry" />
        </mxCell>
        <mxCell id="mvb9WVDTiWPov-UJVNht-8" value="&lt;span style=&quot;color: rgb(29 , 42 , 87) ; font-family: &amp;#34;arial&amp;#34; , &amp;#34;helvetica&amp;#34; , sans-serif ; font-size: 16px ; font-style: normal ; font-weight: 400 ; letter-spacing: normal ; text-indent: 0px ; text-transform: none ; word-spacing: 0px ; display: inline ; float: none&quot;&gt;The topics and lengths of these stories differed, but overall they were explicit and&lt;span&gt;&amp;nbsp;&lt;/span&gt;&lt;/span&gt;&lt;em style=&quot;box-sizing: border-box ; color: rgb(29 , 42 , 87) ; font-family: &amp;#34;arial&amp;#34; , &amp;#34;helvetica&amp;#34; , sans-serif ; font-size: 16px ; font-weight: 400 ; letter-spacing: normal ; text-indent: 0px ; text-transform: none ; word-spacing: 0px&quot;&gt;coherent&lt;/em&gt;&lt;span style=&quot;color: rgb(29 , 42 , 87) ; font-family: &amp;#34;arial&amp;#34; , &amp;#34;helvetica&amp;#34; , sans-serif ; font-size: 16px ; font-style: normal ; font-weight: 400 ; letter-spacing: normal ; text-indent: 0px ; text-transform: none ; word-spacing: 0px ; display: inline ; float: none&quot;&gt;.&lt;/span&gt;" style="whiteSpace=wrap;html=1;" vertex="1" parent="1">
          <mxGeometry x="-350" y="1040" width="370" height="60" as="geometry" />
        </mxCell>
        <mxCell id="mvb9WVDTiWPov-UJVNht-13" value="" style="edgeStyle=none;rounded=0;orthogonalLoop=1;jettySize=auto;html=1;" edge="1" parent="1" source="mvb9WVDTiWPov-UJVNht-10" target="mvb9WVDTiWPov-UJVNht-12">
          <mxGeometry relative="1" as="geometry" />
        </mxCell>
        <mxCell id="mvb9WVDTiWPov-UJVNht-10" value="Explicit" style="ellipse;whiteSpace=wrap;html=1;" vertex="1" parent="1">
          <mxGeometry x="340" y="920" width="120" height="80" as="geometry" />
        </mxCell>
        <mxCell id="mvb9WVDTiWPov-UJVNht-12" value="&lt;span style=&quot;color: rgb(29, 42, 87); font-size: 17px; font-style: italic; font-weight: 400; letter-spacing: normal; text-indent: 0px; text-transform: none; word-spacing: 0px; display: inline; float: none;&quot;&gt;I gave her very explicit&lt;span&gt;&amp;nbsp;&lt;/span&gt;&lt;/span&gt;&lt;a class=&quot;query&quot; href=&quot;https://dictionary.cambridge.org/vi/dictionary/english/direction&quot; title=&quot;directions&quot; style=&quot;box-sizing: border-box; background-color: transparent; text-decoration: none; color: rgb(29, 42, 87); cursor: pointer; font-size: 17px; font-style: italic; font-weight: 400; letter-spacing: normal; text-indent: 0px; text-transform: none; word-spacing: 0px;&quot;&gt;directions&lt;/a&gt;&lt;span style=&quot;color: rgb(29, 42, 87); font-size: 17px; font-style: italic; font-weight: 400; letter-spacing: normal; text-indent: 0px; text-transform: none; word-spacing: 0px; display: inline; float: none;&quot;&gt;&lt;span&gt;&amp;nbsp;&lt;/span&gt;how to get here.&lt;/span&gt;" style="whiteSpace=wrap;html=1;" vertex="1" parent="1">
          <mxGeometry x="280" y="770" width="240" height="60" as="geometry" />
        </mxCell>
        <mxCell id="mvb9WVDTiWPov-UJVNht-17" value="" style="edgeStyle=none;rounded=0;orthogonalLoop=1;jettySize=auto;html=1;" edge="1" parent="1" source="mvb9WVDTiWPov-UJVNht-14" target="mvb9WVDTiWPov-UJVNht-16">
          <mxGeometry relative="1" as="geometry" />
        </mxCell>
        <mxCell id="mvb9WVDTiWPov-UJVNht-14" value="Intelligible" style="ellipse;whiteSpace=wrap;html=1;" vertex="1" parent="1">
          <mxGeometry x="580" y="930" width="120" height="80" as="geometry" />
        </mxCell>
        <mxCell id="mvb9WVDTiWPov-UJVNht-16" value="&lt;span style=&quot;color: rgb(29, 42, 87); font-family: arial, helvetica, sans-serif; font-size: 16px; font-style: normal; font-weight: 400; letter-spacing: normal; text-indent: 0px; text-transform: none; word-spacing: 0px; display: inline; float: none;&quot;&gt;I think this discussion is not immediately&lt;span&gt;&amp;nbsp;&lt;/span&gt;&lt;/span&gt;&lt;em style=&quot;box-sizing: border-box; color: rgb(29, 42, 87); font-family: arial, helvetica, sans-serif; font-size: 16px; font-weight: 400; letter-spacing: normal; text-indent: 0px; text-transform: none; word-spacing: 0px;&quot;&gt;intelligible&lt;/em&gt;&lt;span style=&quot;color: rgb(29, 42, 87); font-family: arial, helvetica, sans-serif; font-size: 16px; font-style: normal; font-weight: 400; letter-spacing: normal; text-indent: 0px; text-transform: none; word-spacing: 0px; display: inline; float: none;&quot;&gt;&lt;span&gt;&amp;nbsp;&lt;/span&gt;to the reader.&lt;/span&gt;" style="whiteSpace=wrap;html=1;" vertex="1" parent="1">
          <mxGeometry x="600" y="1109" width="280" height="60" as="geometry" />
        </mxCell>
        <mxCell id="mvb9WVDTiWPov-UJVNht-18" value="&lt;span style=&quot;color: rgb(29, 42, 87); font-size: 17px; font-style: italic; font-weight: 400; letter-spacing: normal; text-indent: 0px; text-transform: none; word-spacing: 0px; display: inline; float: none;&quot;&gt;I&lt;span&gt;&amp;nbsp;&lt;/span&gt;&lt;/span&gt;&lt;a class=&quot;query&quot; href=&quot;https://dictionary.cambridge.org/vi/dictionary/english/found&quot; title=&quot;found&quot; style=&quot;box-sizing: border-box; background-color: transparent; text-decoration: none; color: rgb(29, 42, 87); cursor: pointer; font-size: 17px; font-style: italic; font-weight: 400; letter-spacing: normal; text-indent: 0px; text-transform: none; word-spacing: 0px;&quot;&gt;found&lt;/a&gt;&lt;span style=&quot;color: rgb(29, 42, 87); font-size: 17px; font-style: italic; font-weight: 400; letter-spacing: normal; text-indent: 0px; text-transform: none; word-spacing: 0px; display: inline; float: none;&quot;&gt;&lt;span&gt;&amp;nbsp;&lt;/span&gt;the&lt;span&gt;&amp;nbsp;&lt;/span&gt;&lt;/span&gt;&lt;a class=&quot;query&quot; href=&quot;https://dictionary.cambridge.org/vi/dictionary/english/whole&quot; title=&quot;whole&quot; style=&quot;box-sizing: border-box; background-color: transparent; text-decoration: none; color: rgb(29, 42, 87); cursor: pointer; font-size: 17px; font-style: italic; font-weight: 400; letter-spacing: normal; text-indent: 0px; text-transform: none; word-spacing: 0px;&quot;&gt;whole&lt;/a&gt;&lt;span style=&quot;color: rgb(29, 42, 87); font-size: 17px; font-style: italic; font-weight: 400; letter-spacing: normal; text-indent: 0px; text-transform: none; word-spacing: 0px; display: inline; float: none;&quot;&gt;&lt;span&gt;&amp;nbsp;&lt;/span&gt;&lt;/span&gt;&lt;a class=&quot;query&quot; href=&quot;https://dictionary.cambridge.org/vi/dictionary/english/film&quot; title=&quot;film&quot; style=&quot;box-sizing: border-box; background-color: transparent; text-decoration: none; color: rgb(29, 42, 87); cursor: pointer; font-size: 17px; font-style: italic; font-weight: 400; letter-spacing: normal; text-indent: 0px; text-transform: none; word-spacing: 0px;&quot;&gt;film&lt;/a&gt;&lt;span style=&quot;color: rgb(29, 42, 87); font-size: 17px; font-style: italic; font-weight: 400; letter-spacing: normal; text-indent: 0px; text-transform: none; word-spacing: 0px; display: inline; float: none;&quot;&gt;&lt;span&gt;&amp;nbsp;&lt;/span&gt;very compelling.&lt;/span&gt;" style="whiteSpace=wrap;html=1;" vertex="1" parent="1">
          <mxGeometry x="1180" y="1290" width="220" height="60" as="geometry" />
        </mxCell>
        <mxCell id="mvb9WVDTiWPov-UJVNht-23" value="" style="edgeStyle=none;rounded=0;orthogonalLoop=1;jettySize=auto;html=1;" edge="1" parent="1" source="mvb9WVDTiWPov-UJVNht-20" target="mvb9WVDTiWPov-UJVNht-22">
          <mxGeometry relative="1" as="geometry" />
        </mxCell>
        <mxCell id="mvb9WVDTiWPov-UJVNht-20" value="Fascinating" style="ellipse;whiteSpace=wrap;html=1;" vertex="1" parent="1">
          <mxGeometry x="1040" y="910" width="120" height="80" as="geometry" />
        </mxCell>
        <mxCell id="mvb9WVDTiWPov-UJVNht-22" value="&lt;span style=&quot;color: rgb(29, 42, 87); font-size: 17px; font-style: italic; font-weight: 400; letter-spacing: normal; text-indent: 0px; text-transform: none; word-spacing: 0px; display: inline; float: none;&quot;&gt;The&lt;span&gt;&amp;nbsp;&lt;/span&gt;&lt;/span&gt;&lt;a class=&quot;query&quot; href=&quot;https://dictionary.cambridge.org/vi/dictionary/english/book&quot; title=&quot;book&quot; style=&quot;box-sizing: border-box; background-color: transparent; text-decoration: none; color: rgb(29, 42, 87); cursor: pointer; font-size: 17px; font-style: italic; font-weight: 400; letter-spacing: normal; text-indent: 0px; text-transform: none; word-spacing: 0px;&quot;&gt;book&lt;/a&gt;&lt;span style=&quot;color: rgb(29, 42, 87); font-size: 17px; font-style: italic; font-weight: 400; letter-spacing: normal; text-indent: 0px; text-transform: none; word-spacing: 0px; display: inline; float: none;&quot;&gt;&lt;span&gt;&amp;nbsp;&lt;/span&gt;&lt;/span&gt;&lt;a class=&quot;query&quot; href=&quot;https://dictionary.cambridge.org/vi/dictionary/english/offer&quot; title=&quot;offers&quot; style=&quot;box-sizing: border-box; background-color: transparent; text-decoration: none; color: rgb(29, 42, 87); cursor: pointer; font-size: 17px; font-style: italic; font-weight: 400; letter-spacing: normal; text-indent: 0px; text-transform: none; word-spacing: 0px;&quot;&gt;offers&lt;/a&gt;&lt;span style=&quot;color: rgb(29, 42, 87); font-size: 17px; font-style: italic; font-weight: 400; letter-spacing: normal; text-indent: 0px; text-transform: none; word-spacing: 0px; display: inline; float: none;&quot;&gt;&lt;span&gt;&amp;nbsp;&lt;/span&gt;a fascinating&lt;span&gt;&amp;nbsp;&lt;/span&gt;&lt;/span&gt;&lt;a class=&quot;query&quot; href=&quot;https://dictionary.cambridge.org/vi/dictionary/english/glimpse&quot; title=&quot;glimpse&quot; style=&quot;box-sizing: border-box; background-color: transparent; text-decoration: none; color: rgb(29, 42, 87); cursor: pointer; font-size: 17px; font-style: italic; font-weight: 400; letter-spacing: normal; text-indent: 0px; text-transform: none; word-spacing: 0px;&quot;&gt;glimpse&lt;/a&gt;&lt;span style=&quot;color: rgb(29, 42, 87); font-size: 17px; font-style: italic; font-weight: 400; letter-spacing: normal; text-indent: 0px; text-transform: none; word-spacing: 0px; display: inline; float: none;&quot;&gt;&lt;span&gt;&amp;nbsp;&lt;/span&gt;of the&lt;span&gt;&amp;nbsp;&lt;/span&gt;&lt;/span&gt;&lt;a class=&quot;query&quot; href=&quot;https://dictionary.cambridge.org/vi/dictionary/english/lives&quot; title=&quot;lives&quot; style=&quot;box-sizing: border-box; background-color: transparent; text-decoration: none; color: rgb(29, 42, 87); cursor: pointer; font-size: 17px; font-style: italic; font-weight: 400; letter-spacing: normal; text-indent: 0px; text-transform: none; word-spacing: 0px;&quot;&gt;lives&lt;/a&gt;&lt;span style=&quot;color: rgb(29, 42, 87); font-size: 17px; font-style: italic; font-weight: 400; letter-spacing: normal; text-indent: 0px; text-transform: none; word-spacing: 0px; display: inline; float: none;&quot;&gt;&lt;span&gt;&amp;nbsp;&lt;/span&gt;of the&lt;span&gt;&amp;nbsp;&lt;/span&gt;&lt;/span&gt;&lt;a class=&quot;query&quot; href=&quot;https://dictionary.cambridge.org/vi/dictionary/english/rich&quot; title=&quot;rich&quot; style=&quot;box-sizing: border-box; background-color: transparent; text-decoration: none; color: rgb(29, 42, 87); cursor: pointer; font-size: 17px; font-style: italic; font-weight: 400; letter-spacing: normal; text-indent: 0px; text-transform: none; word-spacing: 0px;&quot;&gt;rich&lt;/a&gt;&lt;span style=&quot;color: rgb(29, 42, 87); font-size: 17px; font-style: italic; font-weight: 400; letter-spacing: normal; text-indent: 0px; text-transform: none; word-spacing: 0px; display: inline; float: none;&quot;&gt;&lt;span&gt;&amp;nbsp;&lt;/span&gt;and&lt;span&gt;&amp;nbsp;&lt;/span&gt;&lt;/span&gt;&lt;a class=&quot;query&quot; href=&quot;https://dictionary.cambridge.org/vi/dictionary/english/famous&quot; title=&quot;famous&quot; style=&quot;box-sizing: border-box; background-color: transparent; text-decoration: none; color: rgb(29, 42, 87); cursor: pointer; font-size: 17px; font-style: italic; font-weight: 400; letter-spacing: normal; text-indent: 0px; text-transform: none; word-spacing: 0px;&quot;&gt;famous&lt;/a&gt;&lt;span style=&quot;color: rgb(29, 42, 87); font-size: 17px; font-style: italic; font-weight: 400; letter-spacing: normal; text-indent: 0px; text-transform: none; word-spacing: 0px; display: inline; float: none;&quot;&gt;.&lt;/span&gt;" style="whiteSpace=wrap;html=1;" vertex="1" parent="1">
          <mxGeometry x="780" y="800" width="300" height="60" as="geometry" />
        </mxCell>
        <mxCell id="mvb9WVDTiWPov-UJVNht-27" value="" style="edgeStyle=none;rounded=0;orthogonalLoop=1;jettySize=auto;html=1;" edge="1" parent="1" source="mvb9WVDTiWPov-UJVNht-24" target="mvb9WVDTiWPov-UJVNht-26">
          <mxGeometry relative="1" as="geometry" />
        </mxCell>
        <mxCell id="mvb9WVDTiWPov-UJVNht-24" value="Interesting" style="ellipse;whiteSpace=wrap;html=1;" vertex="1" parent="1">
          <mxGeometry x="1400" y="880" width="120" height="80" as="geometry" />
        </mxCell>
        <mxCell id="mvb9WVDTiWPov-UJVNht-26" value="&lt;span style=&quot;color: rgb(29 , 42 , 87) ; font-family: &amp;#34;arial&amp;#34; , &amp;#34;helvetica&amp;#34; , sans-serif ; font-size: 16px ; font-style: italic ; text-align: left ; text-indent: -10px ; background-color: rgb(255 , 248 , 228)&quot;&gt;She&#39;s such an interesting person.&lt;/span&gt;" style="whiteSpace=wrap;html=1;" vertex="1" parent="1">
          <mxGeometry x="1400" y="730" width="120" height="60" as="geometry" />
        </mxCell>
        <mxCell id="mvb9WVDTiWPov-UJVNht-33" value="" style="edgeStyle=none;rounded=0;orthogonalLoop=1;jettySize=auto;html=1;" edge="1" parent="1" source="mvb9WVDTiWPov-UJVNht-30" target="mvb9WVDTiWPov-UJVNht-32">
          <mxGeometry relative="1" as="geometry" />
        </mxCell>
        <mxCell id="mvb9WVDTiWPov-UJVNht-30" value="Exhilarating" style="ellipse;whiteSpace=wrap;html=1;" vertex="1" parent="1">
          <mxGeometry x="1510" y="1080" width="120" height="80" as="geometry" />
        </mxCell>
        <mxCell id="mvb9WVDTiWPov-UJVNht-32" value="&lt;span style=&quot;color: rgb(29, 42, 87); font-family: arial, helvetica, sans-serif; font-size: 16px; font-style: italic; font-weight: 400; letter-spacing: normal; text-align: left; text-indent: -10px; text-transform: none; word-spacing: 0px; background-color: rgb(255, 248, 228); display: inline; float: none;&quot;&gt;I find skiing absolutely exhilarating.&lt;/span&gt;" style="whiteSpace=wrap;html=1;" vertex="1" parent="1">
          <mxGeometry x="1710" y="1090" width="120" height="60" as="geometry" />
        </mxCell>
        <mxCell id="mvb9WVDTiWPov-UJVNht-34" value="Spontaneous" style="ellipse;whiteSpace=wrap;html=1;" vertex="1" parent="1">
          <mxGeometry x="1241" y="1540" width="120" height="80" as="geometry" />
        </mxCell>
      </root>
    </mxGraphModel>
  </diagram>
  <diagram id="yKVp5A5MAPlgiIypLwiB" name="Verb">
    <mxGraphModel dx="2182" dy="1942" grid="1" gridSize="10" guides="1" tooltips="1" connect="1" arrows="1" fold="1" page="1" pageScale="1" pageWidth="827" pageHeight="1169" math="0" shadow="0">
      <root>
        <mxCell id="Vq2OGUKHgjPOxV0qXb9g-0" />
        <mxCell id="Vq2OGUKHgjPOxV0qXb9g-1" parent="Vq2OGUKHgjPOxV0qXb9g-0" />
        <mxCell id="Vq2OGUKHgjPOxV0qXb9g-4" value="" style="edgeStyle=orthogonalEdgeStyle;rounded=0;orthogonalLoop=1;jettySize=auto;html=1;" parent="Vq2OGUKHgjPOxV0qXb9g-1" source="Vq2OGUKHgjPOxV0qXb9g-2" target="Vq2OGUKHgjPOxV0qXb9g-3" edge="1">
          <mxGeometry relative="1" as="geometry" />
        </mxCell>
        <mxCell id="Vq2OGUKHgjPOxV0qXb9g-8" value="" style="edgeStyle=orthogonalEdgeStyle;rounded=0;orthogonalLoop=1;jettySize=auto;html=1;" parent="Vq2OGUKHgjPOxV0qXb9g-1" source="Vq2OGUKHgjPOxV0qXb9g-2" target="Vq2OGUKHgjPOxV0qXb9g-7" edge="1">
          <mxGeometry relative="1" as="geometry" />
        </mxCell>
        <mxCell id="Vq2OGUKHgjPOxV0qXb9g-10" value="" style="edgeStyle=orthogonalEdgeStyle;rounded=0;orthogonalLoop=1;jettySize=auto;html=1;" parent="Vq2OGUKHgjPOxV0qXb9g-1" source="Vq2OGUKHgjPOxV0qXb9g-2" target="Vq2OGUKHgjPOxV0qXb9g-9" edge="1">
          <mxGeometry relative="1" as="geometry" />
        </mxCell>
        <mxCell id="Vq2OGUKHgjPOxV0qXb9g-14" value="" style="rounded=0;orthogonalLoop=1;jettySize=auto;html=1;" parent="Vq2OGUKHgjPOxV0qXb9g-1" source="Vq2OGUKHgjPOxV0qXb9g-2" target="Vq2OGUKHgjPOxV0qXb9g-13" edge="1">
          <mxGeometry relative="1" as="geometry" />
        </mxCell>
        <mxCell id="Vq2OGUKHgjPOxV0qXb9g-18" style="edgeStyle=none;rounded=0;orthogonalLoop=1;jettySize=auto;html=1;exitX=1;exitY=0;exitDx=0;exitDy=0;entryX=0;entryY=1;entryDx=0;entryDy=0;" parent="Vq2OGUKHgjPOxV0qXb9g-1" source="Vq2OGUKHgjPOxV0qXb9g-2" target="Vq2OGUKHgjPOxV0qXb9g-17" edge="1">
          <mxGeometry relative="1" as="geometry" />
        </mxCell>
        <mxCell id="Vq2OGUKHgjPOxV0qXb9g-24" style="edgeStyle=none;rounded=0;orthogonalLoop=1;jettySize=auto;html=1;" parent="Vq2OGUKHgjPOxV0qXb9g-1" source="Vq2OGUKHgjPOxV0qXb9g-2" target="Vq2OGUKHgjPOxV0qXb9g-23" edge="1">
          <mxGeometry relative="1" as="geometry" />
        </mxCell>
        <mxCell id="Vq2OGUKHgjPOxV0qXb9g-2" value="Interfere" style="ellipse;whiteSpace=wrap;html=1;" parent="Vq2OGUKHgjPOxV0qXb9g-1" vertex="1">
          <mxGeometry x="350" y="360" width="120" height="80" as="geometry" />
        </mxCell>
        <mxCell id="Vq2OGUKHgjPOxV0qXb9g-6" value="" style="edgeStyle=orthogonalEdgeStyle;rounded=0;orthogonalLoop=1;jettySize=auto;html=1;" parent="Vq2OGUKHgjPOxV0qXb9g-1" source="Vq2OGUKHgjPOxV0qXb9g-3" target="Vq2OGUKHgjPOxV0qXb9g-5" edge="1">
          <mxGeometry relative="1" as="geometry" />
        </mxCell>
        <mxCell id="Vq2OGUKHgjPOxV0qXb9g-3" value="Impede" style="ellipse;whiteSpace=wrap;html=1;" parent="Vq2OGUKHgjPOxV0qXb9g-1" vertex="1">
          <mxGeometry x="550" y="360" width="120" height="80" as="geometry" />
        </mxCell>
        <mxCell id="Vq2OGUKHgjPOxV0qXb9g-5" value="&lt;span style=&quot;color: rgb(29 , 42 , 87) ; font-family: &amp;#34;arial&amp;#34; , &amp;#34;helvetica&amp;#34; , &amp;#34;hiragino sans gb&amp;#34; , &amp;#34;microsoft yahei&amp;#34; , &amp;#34;wenquanyi micro hei&amp;#34; , sans-serif , ; font-size: 17px ; font-style: italic&quot;&gt;Shortages of&amp;nbsp;&lt;/span&gt;&lt;a class=&quot;query&quot; href=&quot;https://dictionary.cambridge.org/vi/dictionary/english/medicine&quot; title=&quot;medicine&quot; style=&quot;box-sizing: border-box ; background-color: transparent ; color: rgb(29 , 42 , 87) ; cursor: pointer ; font-family: &amp;#34;arial&amp;#34; , &amp;#34;helvetica&amp;#34; , &amp;#34;hiragino sans gb&amp;#34; , &amp;#34;microsoft yahei&amp;#34; , &amp;#34;wenquanyi micro hei&amp;#34; , sans-serif , ; font-size: 17px ; font-style: italic&quot;&gt;medicine&lt;/a&gt;&lt;span style=&quot;color: rgb(29 , 42 , 87) ; font-family: &amp;#34;arial&amp;#34; , &amp;#34;helvetica&amp;#34; , &amp;#34;hiragino sans gb&amp;#34; , &amp;#34;microsoft yahei&amp;#34; , &amp;#34;wenquanyi micro hei&amp;#34; , sans-serif , ; font-size: 17px ; font-style: italic&quot;&gt;&amp;nbsp;were impeding the&amp;nbsp;&lt;/span&gt;&lt;a class=&quot;query&quot; href=&quot;https://dictionary.cambridge.org/vi/dictionary/english/effort&quot; title=&quot;effort&quot; style=&quot;box-sizing: border-box ; background-color: transparent ; color: rgb(29 , 42 , 87) ; cursor: pointer ; font-family: &amp;#34;arial&amp;#34; , &amp;#34;helvetica&amp;#34; , &amp;#34;hiragino sans gb&amp;#34; , &amp;#34;microsoft yahei&amp;#34; , &amp;#34;wenquanyi micro hei&amp;#34; , sans-serif , ; font-size: 17px ; font-style: italic&quot;&gt;effort&lt;/a&gt;&lt;span style=&quot;color: rgb(29 , 42 , 87) ; font-family: &amp;#34;arial&amp;#34; , &amp;#34;helvetica&amp;#34; , &amp;#34;hiragino sans gb&amp;#34; , &amp;#34;microsoft yahei&amp;#34; , &amp;#34;wenquanyi micro hei&amp;#34; , sans-serif , ; font-size: 17px ; font-style: italic&quot;&gt;&amp;nbsp;to&amp;nbsp;&lt;/span&gt;&lt;a class=&quot;query&quot; href=&quot;https://dictionary.cambridge.org/vi/dictionary/english/control&quot; title=&quot;control&quot; style=&quot;box-sizing: border-box ; background-color: transparent ; color: rgb(29 , 42 , 87) ; cursor: pointer ; font-family: &amp;#34;arial&amp;#34; , &amp;#34;helvetica&amp;#34; , &amp;#34;hiragino sans gb&amp;#34; , &amp;#34;microsoft yahei&amp;#34; , &amp;#34;wenquanyi micro hei&amp;#34; , sans-serif , ; font-size: 17px ; font-style: italic&quot;&gt;control&lt;/a&gt;&lt;span style=&quot;color: rgb(29 , 42 , 87) ; font-family: &amp;#34;arial&amp;#34; , &amp;#34;helvetica&amp;#34; , &amp;#34;hiragino sans gb&amp;#34; , &amp;#34;microsoft yahei&amp;#34; , &amp;#34;wenquanyi micro hei&amp;#34; , sans-serif , ; font-size: 17px ; font-style: italic&quot;&gt;&amp;nbsp;&lt;/span&gt;&lt;a class=&quot;query&quot; href=&quot;https://dictionary.cambridge.org/vi/dictionary/english/disease&quot; title=&quot;diseases&quot; style=&quot;box-sizing: border-box ; background-color: transparent ; color: rgb(29 , 42 , 87) ; cursor: pointer ; font-family: &amp;#34;arial&amp;#34; , &amp;#34;helvetica&amp;#34; , &amp;#34;hiragino sans gb&amp;#34; , &amp;#34;microsoft yahei&amp;#34; , &amp;#34;wenquanyi micro hei&amp;#34; , sans-serif , ; font-size: 17px ; font-style: italic&quot;&gt;diseases&lt;/a&gt;&lt;span style=&quot;color: rgb(29 , 42 , 87) ; font-family: &amp;#34;arial&amp;#34; , &amp;#34;helvetica&amp;#34; , &amp;#34;hiragino sans gb&amp;#34; , &amp;#34;microsoft yahei&amp;#34; , &amp;#34;wenquanyi micro hei&amp;#34; , sans-serif , ; font-size: 17px ; font-style: italic&quot;&gt;.&lt;/span&gt;" style="whiteSpace=wrap;html=1;" parent="Vq2OGUKHgjPOxV0qXb9g-1" vertex="1">
          <mxGeometry x="480" y="540" width="260" height="60" as="geometry" />
        </mxCell>
        <mxCell id="Vq2OGUKHgjPOxV0qXb9g-7" value="&lt;span style=&quot;color: rgb(29, 42, 87); font-size: 17px; font-style: italic; font-weight: 400; letter-spacing: normal; text-indent: 0px; text-transform: none; word-spacing: 0px; display: inline; float: none;&quot;&gt;It&#39;s&lt;span&gt;&amp;nbsp;&lt;/span&gt;&lt;/span&gt;&lt;a class=&quot;query&quot; href=&quot;https://dictionary.cambridge.org/vi/dictionary/english/their&quot; title=&quot;their&quot; style=&quot;box-sizing: border-box; background-color: transparent; text-decoration: none; color: rgb(29, 42, 87); cursor: pointer; font-size: 17px; font-style: italic; font-weight: 400; letter-spacing: normal; text-indent: 0px; text-transform: none; word-spacing: 0px;&quot;&gt;their&lt;/a&gt;&lt;span style=&quot;color: rgb(29, 42, 87); font-size: 17px; font-style: italic; font-weight: 400; letter-spacing: normal; text-indent: 0px; text-transform: none; word-spacing: 0px; display: inline; float: none;&quot;&gt;&lt;span&gt;&amp;nbsp;&lt;/span&gt;&lt;/span&gt;&lt;a class=&quot;query&quot; href=&quot;https://dictionary.cambridge.org/vi/dictionary/english/problem&quot; title=&quot;problem&quot; style=&quot;box-sizing: border-box; background-color: transparent; text-decoration: none; color: rgb(29, 42, 87); cursor: pointer; font-size: 17px; font-style: italic; font-weight: 400; letter-spacing: normal; text-indent: 0px; text-transform: none; word-spacing: 0px;&quot;&gt;problem&lt;/a&gt;&lt;span style=&quot;color: rgb(29, 42, 87); font-size: 17px; font-style: italic; font-weight: 400; letter-spacing: normal; text-indent: 0px; text-transform: none; word-spacing: 0px; display: inline; float: none;&quot;&gt;&lt;span&gt;&amp;nbsp;&lt;/span&gt;and I&#39;m not going to interfere.&lt;/span&gt;" style="whiteSpace=wrap;html=1;" parent="Vq2OGUKHgjPOxV0qXb9g-1" vertex="1">
          <mxGeometry x="315" y="620" width="190" height="60" as="geometry" />
        </mxCell>
        <mxCell id="Vq2OGUKHgjPOxV0qXb9g-12" value="" style="edgeStyle=orthogonalEdgeStyle;rounded=0;orthogonalLoop=1;jettySize=auto;html=1;" parent="Vq2OGUKHgjPOxV0qXb9g-1" source="Vq2OGUKHgjPOxV0qXb9g-9" target="Vq2OGUKHgjPOxV0qXb9g-11" edge="1">
          <mxGeometry relative="1" as="geometry" />
        </mxCell>
        <mxCell id="Vq2OGUKHgjPOxV0qXb9g-9" value="Hinder" style="ellipse;whiteSpace=wrap;html=1;" parent="Vq2OGUKHgjPOxV0qXb9g-1" vertex="1">
          <mxGeometry x="150" y="360" width="120" height="80" as="geometry" />
        </mxCell>
        <mxCell id="Vq2OGUKHgjPOxV0qXb9g-11" value="&lt;span style=&quot;color: rgb(29, 42, 87); font-size: 17px; font-style: italic; font-weight: 400; letter-spacing: normal; text-indent: 0px; text-transform: none; word-spacing: 0px; display: inline; float: none;&quot;&gt;A&lt;span&gt;&amp;nbsp;&lt;/span&gt;&lt;/span&gt;&lt;a class=&quot;query&quot; href=&quot;https://dictionary.cambridge.org/vi/dictionary/english/poor&quot; title=&quot;poor&quot; style=&quot;box-sizing: border-box; background-color: transparent; text-decoration: none; color: rgb(29, 42, 87); cursor: pointer; font-size: 17px; font-style: italic; font-weight: 400; letter-spacing: normal; text-indent: 0px; text-transform: none; word-spacing: 0px;&quot;&gt;poor&lt;/a&gt;&lt;span style=&quot;color: rgb(29, 42, 87); font-size: 17px; font-style: italic; font-weight: 400; letter-spacing: normal; text-indent: 0px; text-transform: none; word-spacing: 0px; display: inline; float: none;&quot;&gt;&lt;span&gt;&amp;nbsp;&lt;/span&gt;&lt;/span&gt;&lt;a class=&quot;query&quot; href=&quot;https://dictionary.cambridge.org/vi/dictionary/english/diet&quot; title=&quot;diet&quot; style=&quot;box-sizing: border-box; background-color: transparent; text-decoration: none; color: rgb(29, 42, 87); cursor: pointer; font-size: 17px; font-style: italic; font-weight: 400; letter-spacing: normal; text-indent: 0px; text-transform: none; word-spacing: 0px;&quot;&gt;diet&lt;/a&gt;&lt;span style=&quot;color: rgb(29, 42, 87); font-size: 17px; font-style: italic; font-weight: 400; letter-spacing: normal; text-indent: 0px; text-transform: none; word-spacing: 0px; display: inline; float: none;&quot;&gt;&lt;span&gt;&amp;nbsp;&lt;/span&gt;can hinder&lt;span&gt;&amp;nbsp;&lt;/span&gt;&lt;/span&gt;&lt;a class=&quot;query&quot; href=&quot;https://dictionary.cambridge.org/vi/dictionary/english/mental&quot; title=&quot;mental&quot; style=&quot;box-sizing: border-box; background-color: transparent; text-decoration: none; color: rgb(29, 42, 87); cursor: pointer; font-size: 17px; font-style: italic; font-weight: 400; letter-spacing: normal; text-indent: 0px; text-transform: none; word-spacing: 0px;&quot;&gt;mental&lt;/a&gt;&lt;span style=&quot;color: rgb(29, 42, 87); font-size: 17px; font-style: italic; font-weight: 400; letter-spacing: normal; text-indent: 0px; text-transform: none; word-spacing: 0px; display: inline; float: none;&quot;&gt;&lt;span&gt;&amp;nbsp;&lt;/span&gt;and&lt;span&gt;&amp;nbsp;&lt;/span&gt;&lt;/span&gt;&lt;a class=&quot;query&quot; href=&quot;https://dictionary.cambridge.org/vi/dictionary/english/physical&quot; title=&quot;physical&quot; style=&quot;box-sizing: border-box; background-color: transparent; text-decoration: none; color: rgb(29, 42, 87); cursor: pointer; font-size: 17px; font-style: italic; font-weight: 400; letter-spacing: normal; text-indent: 0px; text-transform: none; word-spacing: 0px;&quot;&gt;physical&lt;/a&gt;&lt;span style=&quot;color: rgb(29, 42, 87); font-size: 17px; font-style: italic; font-weight: 400; letter-spacing: normal; text-indent: 0px; text-transform: none; word-spacing: 0px; display: inline; float: none;&quot;&gt;&lt;span&gt;&amp;nbsp;&lt;/span&gt;&lt;/span&gt;&lt;a class=&quot;query&quot; href=&quot;https://dictionary.cambridge.org/vi/dictionary/english/growth&quot; title=&quot;growth&quot; style=&quot;box-sizing: border-box; background-color: transparent; text-decoration: none; color: rgb(29, 42, 87); cursor: pointer; font-size: 17px; font-style: italic; font-weight: 400; letter-spacing: normal; text-indent: 0px; text-transform: none; word-spacing: 0px;&quot;&gt;growth&lt;/a&gt;&lt;span style=&quot;color: rgb(29, 42, 87); font-size: 17px; font-style: italic; font-weight: 400; letter-spacing: normal; text-indent: 0px; text-transform: none; word-spacing: 0px; display: inline; float: none;&quot;&gt;.&lt;/span&gt;" style="whiteSpace=wrap;html=1;" parent="Vq2OGUKHgjPOxV0qXb9g-1" vertex="1">
          <mxGeometry x="115" y="530" width="190" height="60" as="geometry" />
        </mxCell>
        <mxCell id="Vq2OGUKHgjPOxV0qXb9g-16" value="" style="edgeStyle=none;rounded=0;orthogonalLoop=1;jettySize=auto;html=1;" parent="Vq2OGUKHgjPOxV0qXb9g-1" source="Vq2OGUKHgjPOxV0qXb9g-13" target="Vq2OGUKHgjPOxV0qXb9g-15" edge="1">
          <mxGeometry relative="1" as="geometry" />
        </mxCell>
        <mxCell id="Vq2OGUKHgjPOxV0qXb9g-13" value="Hamper" style="ellipse;whiteSpace=wrap;html=1;" parent="Vq2OGUKHgjPOxV0qXb9g-1" vertex="1">
          <mxGeometry x="70" y="160" width="120" height="80" as="geometry" />
        </mxCell>
        <mxCell id="Vq2OGUKHgjPOxV0qXb9g-15" value="&lt;span style=&quot;color: rgb(29, 42, 87); font-size: 17px; font-style: italic; font-weight: 400; letter-spacing: normal; text-indent: 0px; text-transform: none; word-spacing: 0px; display: inline; float: none;&quot;&gt;Fierce&lt;span&gt;&amp;nbsp;&lt;/span&gt;&lt;/span&gt;&lt;a class=&quot;query&quot; href=&quot;https://dictionary.cambridge.org/vi/dictionary/english/storm&quot; title=&quot;storms&quot; style=&quot;box-sizing: border-box; background-color: transparent; text-decoration: none; color: rgb(29, 42, 87); cursor: pointer; font-size: 17px; font-style: italic; font-weight: 400; letter-spacing: normal; text-indent: 0px; text-transform: none; word-spacing: 0px;&quot;&gt;storms&lt;/a&gt;&lt;span style=&quot;color: rgb(29, 42, 87); font-size: 17px; font-style: italic; font-weight: 400; letter-spacing: normal; text-indent: 0px; text-transform: none; word-spacing: 0px; display: inline; float: none;&quot;&gt;&lt;span&gt;&amp;nbsp;&lt;/span&gt;have been hampering&lt;span&gt;&amp;nbsp;&lt;/span&gt;&lt;/span&gt;&lt;a class=&quot;query&quot; href=&quot;https://dictionary.cambridge.org/vi/dictionary/english/rescue&quot; title=&quot;rescue&quot; style=&quot;box-sizing: border-box; background-color: transparent; text-decoration: none; color: rgb(29, 42, 87); cursor: pointer; font-size: 17px; font-style: italic; font-weight: 400; letter-spacing: normal; text-indent: 0px; text-transform: none; word-spacing: 0px;&quot;&gt;rescue&lt;/a&gt;&lt;span style=&quot;color: rgb(29, 42, 87); font-size: 17px; font-style: italic; font-weight: 400; letter-spacing: normal; text-indent: 0px; text-transform: none; word-spacing: 0px; display: inline; float: none;&quot;&gt;&lt;span&gt;&amp;nbsp;&lt;/span&gt;&lt;/span&gt;&lt;a class=&quot;query&quot; href=&quot;https://dictionary.cambridge.org/vi/dictionary/english/effort&quot; title=&quot;efforts&quot; style=&quot;box-sizing: border-box; background-color: transparent; text-decoration: none; color: rgb(29, 42, 87); cursor: pointer; font-size: 17px; font-style: italic; font-weight: 400; letter-spacing: normal; text-indent: 0px; text-transform: none; word-spacing: 0px;&quot;&gt;efforts&lt;/a&gt;&lt;span style=&quot;color: rgb(29, 42, 87); font-size: 17px; font-style: italic; font-weight: 400; letter-spacing: normal; text-indent: 0px; text-transform: none; word-spacing: 0px; display: inline; float: none;&quot;&gt;&lt;span&gt;&amp;nbsp;&lt;/span&gt;and there is now little&lt;span&gt;&amp;nbsp;&lt;/span&gt;&lt;/span&gt;&lt;a class=&quot;query&quot; href=&quot;https://dictionary.cambridge.org/vi/dictionary/english/chance&quot; title=&quot;chance&quot; style=&quot;box-sizing: border-box; background-color: transparent; text-decoration: none; color: rgb(29, 42, 87); cursor: pointer; font-size: 17px; font-style: italic; font-weight: 400; letter-spacing: normal; text-indent: 0px; text-transform: none; word-spacing: 0px;&quot;&gt;chance&lt;/a&gt;&lt;span style=&quot;color: rgb(29, 42, 87); font-size: 17px; font-style: italic; font-weight: 400; letter-spacing: normal; text-indent: 0px; text-transform: none; word-spacing: 0px; display: inline; float: none;&quot;&gt;&lt;span&gt;&amp;nbsp;&lt;/span&gt;of&lt;span&gt;&amp;nbsp;&lt;/span&gt;&lt;/span&gt;&lt;a class=&quot;query&quot; href=&quot;https://dictionary.cambridge.org/vi/dictionary/english/finding&quot; title=&quot;finding&quot; style=&quot;box-sizing: border-box; background-color: transparent; text-decoration: none; color: rgb(29, 42, 87); cursor: pointer; font-size: 17px; font-style: italic; font-weight: 400; letter-spacing: normal; text-indent: 0px; text-transform: none; word-spacing: 0px;&quot;&gt;finding&lt;/a&gt;&lt;span style=&quot;color: rgb(29, 42, 87); font-size: 17px; font-style: italic; font-weight: 400; letter-spacing: normal; text-indent: 0px; text-transform: none; word-spacing: 0px; display: inline; float: none;&quot;&gt;&lt;span&gt;&amp;nbsp;&lt;/span&gt;more&lt;span&gt;&amp;nbsp;&lt;/span&gt;&lt;/span&gt;&lt;a class=&quot;query&quot; href=&quot;https://dictionary.cambridge.org/vi/dictionary/english/survivor&quot; title=&quot;survivors&quot; style=&quot;box-sizing: border-box; background-color: transparent; text-decoration: none; color: rgb(29, 42, 87); cursor: pointer; font-size: 17px; font-style: italic; font-weight: 400; letter-spacing: normal; text-indent: 0px; text-transform: none; word-spacing: 0px;&quot;&gt;survivors&lt;/a&gt;&lt;span style=&quot;color: rgb(29, 42, 87); font-size: 17px; font-style: italic; font-weight: 400; letter-spacing: normal; text-indent: 0px; text-transform: none; word-spacing: 0px; display: inline; float: none;&quot;&gt;.&lt;/span&gt;" style="whiteSpace=wrap;html=1;" parent="Vq2OGUKHgjPOxV0qXb9g-1" vertex="1">
          <mxGeometry x="-300" y="150" width="290" height="100" as="geometry" />
        </mxCell>
        <mxCell id="Vq2OGUKHgjPOxV0qXb9g-20" value="" style="edgeStyle=none;rounded=0;orthogonalLoop=1;jettySize=auto;html=1;" parent="Vq2OGUKHgjPOxV0qXb9g-1" source="Vq2OGUKHgjPOxV0qXb9g-17" target="Vq2OGUKHgjPOxV0qXb9g-19" edge="1">
          <mxGeometry relative="1" as="geometry" />
        </mxCell>
        <mxCell id="Vq2OGUKHgjPOxV0qXb9g-22" style="edgeStyle=none;rounded=0;orthogonalLoop=1;jettySize=auto;html=1;exitX=1;exitY=1;exitDx=0;exitDy=0;entryX=0;entryY=0.5;entryDx=0;entryDy=0;" parent="Vq2OGUKHgjPOxV0qXb9g-1" source="Vq2OGUKHgjPOxV0qXb9g-17" target="Vq2OGUKHgjPOxV0qXb9g-21" edge="1">
          <mxGeometry relative="1" as="geometry" />
        </mxCell>
        <mxCell id="Vq2OGUKHgjPOxV0qXb9g-17" value="Inhibit" style="ellipse;whiteSpace=wrap;html=1;" parent="Vq2OGUKHgjPOxV0qXb9g-1" vertex="1">
          <mxGeometry x="590" y="140" width="120" height="80" as="geometry" />
        </mxCell>
        <mxCell id="Vq2OGUKHgjPOxV0qXb9g-19" value="&lt;span style=&quot;color: rgb(29, 42, 87); font-size: 17px; font-style: italic; font-weight: 400; letter-spacing: normal; text-indent: 0px; text-transform: none; word-spacing: 0px; display: inline; float: none;&quot;&gt;Some&lt;span&gt;&amp;nbsp;&lt;/span&gt;&lt;/span&gt;&lt;a class=&quot;query&quot; href=&quot;https://dictionary.cambridge.org/vi/dictionary/english/worker&quot; title=&quot;workers&quot; style=&quot;box-sizing: border-box; background-color: transparent; text-decoration: none; color: rgb(29, 42, 87); cursor: pointer; font-size: 17px; font-style: italic; font-weight: 400; letter-spacing: normal; text-indent: 0px; text-transform: none; word-spacing: 0px;&quot;&gt;workers&lt;/a&gt;&lt;span style=&quot;color: rgb(29, 42, 87); font-size: 17px; font-style: italic; font-weight: 400; letter-spacing: normal; text-indent: 0px; text-transform: none; word-spacing: 0px; display: inline; float: none;&quot;&gt;&lt;span&gt;&amp;nbsp;&lt;/span&gt;were inhibited (&lt;/span&gt;&lt;span class=&quot;b db&quot; style=&quot;box-sizing: border-box; font-weight: 700; color: rgb(29, 42, 87); font-size: 17px; font-style: italic; letter-spacing: normal; text-indent: 0px; text-transform: none; word-spacing: 0px;&quot;&gt;from&lt;/span&gt;&lt;span style=&quot;color: rgb(29, 42, 87); font-size: 17px; font-style: italic; font-weight: 400; letter-spacing: normal; text-indent: 0px; text-transform: none; word-spacing: 0px; display: inline; float: none;&quot;&gt;&lt;span&gt;&amp;nbsp;&lt;/span&gt;&lt;/span&gt;&lt;a class=&quot;query&quot; href=&quot;https://dictionary.cambridge.org/vi/dictionary/english/speaking&quot; title=&quot;speaking&quot; style=&quot;box-sizing: border-box; background-color: transparent; text-decoration: none; color: rgb(29, 42, 87); cursor: pointer; font-size: 17px; font-style: italic; font-weight: 400; letter-spacing: normal; text-indent: 0px; text-transform: none; word-spacing: 0px;&quot;&gt;speaking&lt;/a&gt;&lt;span style=&quot;color: rgb(29, 42, 87); font-size: 17px; font-style: italic; font-weight: 400; letter-spacing: normal; text-indent: 0px; text-transform: none; word-spacing: 0px; display: inline; float: none;&quot;&gt;) by the&lt;span&gt;&amp;nbsp;&lt;/span&gt;&lt;/span&gt;&lt;a class=&quot;query&quot; href=&quot;https://dictionary.cambridge.org/vi/dictionary/english/presence&quot; title=&quot;presence&quot; style=&quot;box-sizing: border-box; background-color: transparent; text-decoration: none; color: rgb(29, 42, 87); cursor: pointer; font-size: 17px; font-style: italic; font-weight: 400; letter-spacing: normal; text-indent: 0px; text-transform: none; word-spacing: 0px;&quot;&gt;presence&lt;/a&gt;&lt;span style=&quot;color: rgb(29, 42, 87); font-size: 17px; font-style: italic; font-weight: 400; letter-spacing: normal; text-indent: 0px; text-transform: none; word-spacing: 0px; display: inline; float: none;&quot;&gt;&lt;span&gt;&amp;nbsp;&lt;/span&gt;of&lt;span&gt;&amp;nbsp;&lt;/span&gt;&lt;/span&gt;&lt;a class=&quot;query&quot; href=&quot;https://dictionary.cambridge.org/vi/dictionary/english/their&quot; title=&quot;their&quot; style=&quot;box-sizing: border-box; background-color: transparent; text-decoration: none; color: rgb(29, 42, 87); cursor: pointer; font-size: 17px; font-style: italic; font-weight: 400; letter-spacing: normal; text-indent: 0px; text-transform: none; word-spacing: 0px;&quot;&gt;their&lt;/a&gt;&lt;span style=&quot;color: rgb(29, 42, 87); font-size: 17px; font-style: italic; font-weight: 400; letter-spacing: normal; text-indent: 0px; text-transform: none; word-spacing: 0px; display: inline; float: none;&quot;&gt;&lt;span&gt;&amp;nbsp;&lt;/span&gt;&lt;/span&gt;&lt;a class=&quot;query&quot; href=&quot;https://dictionary.cambridge.org/vi/dictionary/english/manager&quot; title=&quot;managers&quot; style=&quot;box-sizing: border-box; background-color: transparent; text-decoration: none; color: rgb(29, 42, 87); cursor: pointer; font-size: 17px; font-style: italic; font-weight: 400; letter-spacing: normal; text-indent: 0px; text-transform: none; word-spacing: 0px;&quot;&gt;managers&lt;/a&gt;&lt;span style=&quot;color: rgb(29, 42, 87); font-size: 17px; font-style: italic; font-weight: 400; letter-spacing: normal; text-indent: 0px; text-transform: none; word-spacing: 0px; display: inline; float: none;&quot;&gt;.&lt;/span&gt;" style="whiteSpace=wrap;html=1;" parent="Vq2OGUKHgjPOxV0qXb9g-1" vertex="1">
          <mxGeometry x="790" y="150" width="280" height="60" as="geometry" />
        </mxCell>
        <mxCell id="Vq2OGUKHgjPOxV0qXb9g-21" value="&lt;span style=&quot;color: rgb(29 , 42 , 87) ; font-family: &amp;#34;arial&amp;#34; , &amp;#34;helvetica&amp;#34; , &amp;#34;hiragino sans gb&amp;#34; , &amp;#34;microsoft yahei&amp;#34; , &amp;#34;wenquanyi micro hei&amp;#34; , sans-serif , ; font-size: 17px ; font-style: italic&quot;&gt;This&amp;nbsp;&lt;/span&gt;&lt;a class=&quot;query&quot; href=&quot;https://dictionary.cambridge.org/vi/dictionary/english/drug&quot; title=&quot;drug&quot; style=&quot;box-sizing: border-box ; background-color: transparent ; color: rgb(29 , 42 , 87) ; cursor: pointer ; font-family: &amp;#34;arial&amp;#34; , &amp;#34;helvetica&amp;#34; , &amp;#34;hiragino sans gb&amp;#34; , &amp;#34;microsoft yahei&amp;#34; , &amp;#34;wenquanyi micro hei&amp;#34; , sans-serif , ; font-size: 17px ; font-style: italic&quot;&gt;drug&lt;/a&gt;&lt;span style=&quot;color: rgb(29 , 42 , 87) ; font-family: &amp;#34;arial&amp;#34; , &amp;#34;helvetica&amp;#34; , &amp;#34;hiragino sans gb&amp;#34; , &amp;#34;microsoft yahei&amp;#34; , &amp;#34;wenquanyi micro hei&amp;#34; , sans-serif , ; font-size: 17px ; font-style: italic&quot;&gt;&amp;nbsp;inhibits the&amp;nbsp;&lt;/span&gt;&lt;a class=&quot;query&quot; href=&quot;https://dictionary.cambridge.org/vi/dictionary/english/growth&quot; title=&quot;growth&quot; style=&quot;box-sizing: border-box ; background-color: transparent ; color: rgb(29 , 42 , 87) ; cursor: pointer ; font-family: &amp;#34;arial&amp;#34; , &amp;#34;helvetica&amp;#34; , &amp;#34;hiragino sans gb&amp;#34; , &amp;#34;microsoft yahei&amp;#34; , &amp;#34;wenquanyi micro hei&amp;#34; , sans-serif , ; font-size: 17px ; font-style: italic&quot;&gt;growth&lt;/a&gt;&lt;span style=&quot;color: rgb(29 , 42 , 87) ; font-family: &amp;#34;arial&amp;#34; , &amp;#34;helvetica&amp;#34; , &amp;#34;hiragino sans gb&amp;#34; , &amp;#34;microsoft yahei&amp;#34; , &amp;#34;wenquanyi micro hei&amp;#34; , sans-serif , ; font-size: 17px ; font-style: italic&quot;&gt;&amp;nbsp;of&amp;nbsp;&lt;/span&gt;&lt;a class=&quot;query&quot; href=&quot;https://dictionary.cambridge.org/vi/dictionary/english/tumour&quot; title=&quot;tumours&quot; style=&quot;box-sizing: border-box ; background-color: transparent ; color: rgb(29 , 42 , 87) ; cursor: pointer ; font-family: &amp;#34;arial&amp;#34; , &amp;#34;helvetica&amp;#34; , &amp;#34;hiragino sans gb&amp;#34; , &amp;#34;microsoft yahei&amp;#34; , &amp;#34;wenquanyi micro hei&amp;#34; , sans-serif , ; font-size: 17px ; font-style: italic&quot;&gt;tumours&lt;/a&gt;&lt;span style=&quot;color: rgb(29 , 42 , 87) ; font-family: &amp;#34;arial&amp;#34; , &amp;#34;helvetica&amp;#34; , &amp;#34;hiragino sans gb&amp;#34; , &amp;#34;microsoft yahei&amp;#34; , &amp;#34;wenquanyi micro hei&amp;#34; , sans-serif , ; font-size: 17px ; font-style: italic&quot;&gt;.&lt;/span&gt;" style="whiteSpace=wrap;html=1;" parent="Vq2OGUKHgjPOxV0qXb9g-1" vertex="1">
          <mxGeometry x="790" y="250" width="280" height="60" as="geometry" />
        </mxCell>
        <mxCell id="Vq2OGUKHgjPOxV0qXb9g-26" value="" style="edgeStyle=none;rounded=0;orthogonalLoop=1;jettySize=auto;html=1;" parent="Vq2OGUKHgjPOxV0qXb9g-1" source="Vq2OGUKHgjPOxV0qXb9g-23" target="Vq2OGUKHgjPOxV0qXb9g-25" edge="1">
          <mxGeometry relative="1" as="geometry" />
        </mxCell>
        <mxCell id="Vq2OGUKHgjPOxV0qXb9g-23" value="Prevent" style="ellipse;whiteSpace=wrap;html=1;" parent="Vq2OGUKHgjPOxV0qXb9g-1" vertex="1">
          <mxGeometry x="350" y="70" width="120" height="80" as="geometry" />
        </mxCell>
        <mxCell id="Vq2OGUKHgjPOxV0qXb9g-25" value="&lt;span style=&quot;color: rgb(29 , 42 , 87) ; font-family: &amp;#34;arial&amp;#34; , &amp;#34;helvetica&amp;#34; , &amp;#34;hiragino sans gb&amp;#34; , &amp;#34;microsoft yahei&amp;#34; , &amp;#34;wenquanyi micro hei&amp;#34; , sans-serif , ; font-size: 17px ; font-style: italic&quot;&gt;The&amp;nbsp;&lt;/span&gt;&lt;a class=&quot;query&quot; href=&quot;https://dictionary.cambridge.org/vi/dictionary/english/police&quot; title=&quot;police&quot; style=&quot;box-sizing: border-box ; background-color: transparent ; color: rgb(29 , 42 , 87) ; cursor: pointer ; font-family: &amp;#34;arial&amp;#34; , &amp;#34;helvetica&amp;#34; , &amp;#34;hiragino sans gb&amp;#34; , &amp;#34;microsoft yahei&amp;#34; , &amp;#34;wenquanyi micro hei&amp;#34; , sans-serif , ; font-size: 17px ; font-style: italic&quot;&gt;police&lt;/a&gt;&lt;span style=&quot;color: rgb(29 , 42 , 87) ; font-family: &amp;#34;arial&amp;#34; , &amp;#34;helvetica&amp;#34; , &amp;#34;hiragino sans gb&amp;#34; , &amp;#34;microsoft yahei&amp;#34; , &amp;#34;wenquanyi micro hei&amp;#34; , sans-serif , ; font-size: 17px ; font-style: italic&quot;&gt;&amp;nbsp;&lt;/span&gt;&lt;a class=&quot;query&quot; href=&quot;https://dictionary.cambridge.org/vi/dictionary/english/tried&quot; title=&quot;tried&quot; style=&quot;box-sizing: border-box ; background-color: transparent ; color: rgb(29 , 42 , 87) ; cursor: pointer ; font-family: &amp;#34;arial&amp;#34; , &amp;#34;helvetica&amp;#34; , &amp;#34;hiragino sans gb&amp;#34; , &amp;#34;microsoft yahei&amp;#34; , &amp;#34;wenquanyi micro hei&amp;#34; , sans-serif , ; font-size: 17px ; font-style: italic&quot;&gt;tried&lt;/a&gt;&lt;span style=&quot;color: rgb(29 , 42 , 87) ; font-family: &amp;#34;arial&amp;#34; , &amp;#34;helvetica&amp;#34; , &amp;#34;hiragino sans gb&amp;#34; , &amp;#34;microsoft yahei&amp;#34; , &amp;#34;wenquanyi micro hei&amp;#34; , sans-serif , ; font-size: 17px ; font-style: italic&quot;&gt;&amp;nbsp;to prevent him from&amp;nbsp;&lt;/span&gt;&lt;a class=&quot;query&quot; href=&quot;https://dictionary.cambridge.org/vi/dictionary/english/leaving&quot; title=&quot;leaving&quot; style=&quot;box-sizing: border-box ; background-color: transparent ; color: rgb(29 , 42 , 87) ; cursor: pointer ; font-family: &amp;#34;arial&amp;#34; , &amp;#34;helvetica&amp;#34; , &amp;#34;hiragino sans gb&amp;#34; , &amp;#34;microsoft yahei&amp;#34; , &amp;#34;wenquanyi micro hei&amp;#34; , sans-serif , ; font-size: 17px ; font-style: italic&quot;&gt;leaving&lt;/a&gt;&lt;span style=&quot;color: rgb(29 , 42 , 87) ; font-family: &amp;#34;arial&amp;#34; , &amp;#34;helvetica&amp;#34; , &amp;#34;hiragino sans gb&amp;#34; , &amp;#34;microsoft yahei&amp;#34; , &amp;#34;wenquanyi micro hei&amp;#34; , sans-serif , ; font-size: 17px ; font-style: italic&quot;&gt;.&lt;/span&gt;" style="whiteSpace=wrap;html=1;" parent="Vq2OGUKHgjPOxV0qXb9g-1" vertex="1">
          <mxGeometry x="305" y="-80" width="210" height="60" as="geometry" />
        </mxCell>
      </root>
    </mxGraphModel>
  </diagram>
</mxfile>
